<svg width="17" height="20" viewBox="0 0 17 20" fill="none" xmlns="http://www.w3.org/2000/svg">
<path d="M11.4313 15.9583C10.8049 15.9583 10.2778 15.7444 9.85 15.3166C9.42222 14.8888 9.20833 14.3617 9.20833 13.7353C9.20833 13.1089 9.42222 12.5819 9.85 12.1541C10.2778 11.7263 10.8049 11.5124 11.4313 11.5124C12.0576 11.5124 12.5847 11.7263 13.0125 12.1541C13.4403 12.5819 13.6542 13.1089 13.6542 13.7353C13.6542 14.3617 13.4403 14.8888 13.0125 15.3166C12.5847 15.7444 12.0576 15.9583 11.4313 15.9583ZM1.875 19.1666C1.50833 19.1666 1.1875 19.0291 0.9125 18.7541C0.6375 18.4791 0.5 18.1583 0.5 17.7916V3.58325C0.5 3.21659 0.6375 2.89575 0.9125 2.62075C1.1875 2.34575 1.50833 2.20825 1.875 2.20825H3.36458V0.833252H4.85417V2.20825H12.6458V0.833252H14.1354V2.20825H15.625C15.9917 2.20825 16.3125 2.34575 16.5875 2.62075C16.8625 2.89575 17 3.21659 17 3.58325V17.7916C17 18.1583 16.8625 18.4791 16.5875 18.7541C16.3125 19.0291 15.9917 19.1666 15.625 19.1666H1.875ZM1.875 17.7916H15.625V7.93742H1.875V17.7916ZM1.875 6.56242H15.625V3.58325H1.875V6.56242Z" fill="black"/>
</svg>
