<svg version="1.1" xmlns="http://www.w3.org/2000/svg" xmlns:xlink="http://www.w3.org/1999/xlink">

    <symbol viewBox="0 0 224 108" id="logo">
        <path d="M24.63 0.5L19.04 16.27L13.54 0.5H0.18V32.99H9.37V13.81L16.63 32.99H20.09L27.49 13.81V32.99H37.72V0.5H24.63Z" />
        <path d="M66.08 16.91V16.54C66.08 11.04 63.44 8.04 59.35 8.04C55.26 8.04 52.76 11.04 52.76 16.54V16.91C52.76 22.45 55.35 25.49 59.44 25.49C63.53 25.49 66.08 22.31 66.08 16.91V16.91ZM42 17V16.64C42 6.54 49.63 0 59.35 0C69.35 0 76.8 6 76.8 16.31V16.68C76.8 26.81 69.8 33.58 59.17 33.58C48.54 33.58 42 26.81 42 17Z" />
        <path d="M78.44 22.59H88.2C88.39 24.59 89.39 26.31 92.75 26.31C95.16 26.31 96.34 25.22 96.34 23.63C96.34 22.04 95.21 21.35 91.71 20.86C82.34 19.86 79.16 17.09 79.16 10.4C79.16 4.4 84.07 0.0400009 92.16 0.0400009C100.25 0.0400009 104.7 3.31 105.25 10.4H95.7C95.6943 9.955 95.5956 9.51611 95.4102 9.11154C95.2247 8.70698 94.9567 8.34569 94.6233 8.0509C94.2899 7.75611 93.8985 7.53434 93.4743 7.39986C93.05 7.26537 92.6024 7.22114 92.16 7.27C90.02 7.27 88.93 8.27 88.93 9.63C88.93 10.99 89.93 11.91 93.48 12.36C101.66 13.22 106.2 15.36 106.2 22.54C106.2 28.54 101.48 33.54 92.75 33.54C83.57 33.54 78.66 29.86 78.44 22.54" />
        <path d="M108.52 17V16.64C108.52 6.64 115.75 0.0499992 125.33 0.0499992C134.11 0.0499992 140.01 4.05 140.78 12.86H130.15C129.84 9.86 128.24 8.18 125.38 8.18C121.65 8.18 119.38 11.09 119.38 16.59V16.95C119.38 22.36 121.56 25.36 125.56 25.36C128.47 25.36 130.56 23.86 130.93 20.59H141.19C140.65 29.13 134.37 33.59 125.79 33.59C114.07 33.59 108.52 26.91 108.52 16.96" />
        <path d="M167.28 16.91V16.54C167.28 11.04 164.64 8.04 160.55 8.04C156.46 8.04 154 11 154 16.54V16.91C154 22.45 156.6 25.49 160.68 25.49C164.76 25.49 167.32 22.31 167.32 16.91H167.28ZM143.23 16.91V16.55C143.23 6.55 150.87 -0.0400009 160.59 -0.0400009C170.55 -9.16421e-07 178 6 178 16.31V16.68C178 26.81 171.05 33.58 160.37 33.58C149.69 33.58 143.19 26.81 143.19 17" />
        <path d="M213.9 0.5L209.95 20.13L205.54 0.5H196.59L192.69 19.9L188.95 0.5H178.55L186.09 32.99H196.36L200.95 13.59L205.49 32.99H215.9L223.45 0.5H213.9Z" />
        <path d="M0 56.78V37.69H10.27V56.37C10.27 60.6 11.18 62.69 14.86 62.69C18.54 62.69 19.41 60.6 19.41 56.33V37.69H29.77V56.69C29.77 66.46 23.95 70.78 14.86 70.78C5.36 70.78 0 66.05 0 56.78Z" />
        <path d="M47.12 52.42C49.99 52.42 51.35 51.24 51.35 48.87V48.69C51.35 46.33 49.94 45.42 47.17 45.42H44.71V52.42H47.12ZM34.44 37.69H47.71C56.71 37.69 61.3 41.28 61.3 48.24V48.42C61.3954 50.2356 60.915 52.0349 59.9274 53.5613C58.9397 55.0876 57.4952 56.2631 55.8 56.92L63.21 70.19H52.39L46.39 59.05H44.71V70.19H34.44V37.69Z" />
        <path d="M81.2 63.42C83.83 63.42 85.06 62.19 85.06 60.01V59.83C85.06 57.69 83.88 56.51 80.97 56.51H77.97V63.42H81.2ZM81.06 50.37C83.61 50.37 84.6 49.51 84.6 47.51V47.33C84.6 45.38 83.6 44.42 81.02 44.42H77.92V50.37H81.06ZM67.88 37.69H83.24C91.24 37.69 94.33 41.38 94.33 46.19V46.38C94.33 50.15 92.33 52.51 88.69 53.38C92.51 54.06 95.19 56.43 95.19 60.97V61.16C95.19 66.92 91.51 70.16 83.19 70.16H67.88V37.69Z" />
        <path d="M112.86 57.78H119.27L116.09 46L112.86 57.78ZM110.09 37.69H123.41L133.59 70.19H122.68L121.18 64.77H110.91L109.46 70.19H99.87L110.09 37.69Z" />
        <path d="M138.26 37.7H149.8L159.03 54.88V37.7H168.07V70.19H158.21L147.35 50.73V70.19H138.26V37.7Z" />
        <path d="M0.18 74.89V107.39H10.5V96.48H20.32V88.88H10.5V82.84H22.68V74.89H0.18Z" />
        <path d="M48.67 91.29V90.93C48.67 85.43 46.03 82.44 41.94 82.44C37.85 82.44 35.35 85.38 35.35 90.93V91.29C35.35 96.84 37.95 99.88 42.04 99.88C46.13 99.88 48.67 96.7 48.67 91.29V91.29ZM24.59 91.29V91C24.59 81 32.22 74.41 41.94 74.41C51.94 74.41 59.4 80.41 59.4 90.73V91.09C59.4 101.22 52.4 108 41.76 108C31.12 108 24.59 101.2 24.59 91.34" />
        <path d="M76.26 89.62C79.12 89.62 80.48 88.44 80.48 86.07V85.89C80.48 83.53 79.07 82.62 76.3 82.62H73.85V89.62H76.26ZM63.57 74.89H76.85C85.85 74.89 90.44 78.48 90.44 85.43V85.62C90.5333 87.4339 90.0519 89.231 89.0644 90.7553C88.0768 92.2797 86.6335 93.4537 84.94 94.11L92.34 107.38H81.53L75.53 96.25H73.85V107.38H63.57V74.89Z" />
        <path d="M95 94V74.89H105.27V93.56C105.27 97.8 106.17 99.88 109.86 99.88C113.55 99.88 114.4 97.8 114.4 93.53V74.89H124.76V93.89C124.76 103.66 118.95 107.98 109.86 107.98C100.34 108 95 103.25 95 94Z" />
        <path d="M154.87 74.89L149.28 90.66L143.78 74.89H130.42V107.39H139.6V88.2L146.87 107.39H150.33L157.73 88.2V107.39H167.96V74.89H154.87Z" />
    </symbol>

    <symbol viewBox="0 0 24 24" id="header-search">
        <path d="M11 19C15.4183 19 19 15.4183 19 11C19 6.58172 15.4183 3 11 3C6.58172 3 3 6.58172 3 11C3 15.4183 6.58172 19 11 19Z" stroke-width="2" stroke-linecap="round" stroke-linejoin="round" />
        <path d="M21.0004 20.9999L16.6504 16.6499" stroke-width="2" stroke-linecap="round" stroke-linejoin="round" />
    </symbol>

    <symbol viewBox="0 0 25 24" id="header-search-close">
        <path d="M2 1.5L23.0312 22.5312" stroke-linecap="round" stroke-linejoin="round" />
        <path d="M23.0312 1.5L2.00003 22.5312" stroke-linecap="round" stroke-linejoin="round" />
    </symbol>

    <symbol viewBox="0 0 25 25" id="welcome-slider-place">
        <path d="M12.2632 17.6425C13.9965 16.2592 15.3049 14.9299 16.1882 13.6545C17.0715 12.3799 17.5132 11.1592 17.5132 9.99253C17.5132 9.0092 17.3338 8.17153 16.9752 7.47953C16.6172 6.7882 16.1758 6.22986 15.6512 5.80453C15.1258 5.37986 14.5549 5.07153 13.9382 4.87953C13.3215 4.6882 12.7632 4.59253 12.2632 4.59253C11.7632 4.59253 11.2049 4.6882 10.5882 4.87953C9.97152 5.07153 9.40085 5.37986 8.87618 5.80453C8.35085 6.22986 7.90885 6.7882 7.55018 7.47953C7.19218 8.17153 7.01318 9.0092 7.01318 9.99253C7.01318 11.1592 7.45485 12.3799 8.33818 13.6545C9.22152 14.9299 10.5299 16.2592 12.2632 17.6425ZM12.2632 19.5425C9.99652 17.8425 8.30485 16.2049 7.18818 14.6295C6.07152 13.0549 5.51318 11.5092 5.51318 9.99253C5.51318 8.8592 5.71752 7.8632 6.12618 7.00453C6.53418 6.14653 7.05918 5.42586 7.70118 4.84253C8.34252 4.2592 9.06752 3.82186 9.87618 3.53053C10.6842 3.23853 11.4799 3.09253 12.2632 3.09253C13.0465 3.09253 13.8425 3.23853 14.6512 3.53053C15.4592 3.82186 16.1839 4.2592 16.8252 4.84253C17.4672 5.42586 17.9925 6.14653 18.4012 7.00453C18.8092 7.8632 19.0132 8.8592 19.0132 9.99253C19.0132 11.5092 18.4549 13.0549 17.3382 14.6295C16.2215 16.2049 14.5299 17.8425 12.2632 19.5425ZM12.2632 11.5925C12.7465 11.5925 13.1592 11.4219 13.5012 11.0805C13.8425 10.7385 14.0132 10.3259 14.0132 9.84253C14.0132 9.3592 13.8425 8.94653 13.5012 8.60453C13.1592 8.2632 12.7465 8.09253 12.2632 8.09253C11.7799 8.09253 11.3672 8.2632 11.0252 8.60453C10.6839 8.94653 10.5132 9.3592 10.5132 9.84253C10.5132 10.3259 10.6839 10.7385 11.0252 11.0805C11.3672 11.4219 11.7799 11.5925 12.2632 11.5925ZM5.51318 22.5925V21.0925H19.0132V22.5925H5.51318Z" />
    </symbol>

    <symbol viewBox="0 0 31 31" id="icon-photos">
        <path d="M7.63818 21.6863H22.9194L18.3257 15.5613L14.2007 20.905L11.2944 16.9363L7.63818 21.6863ZM5.88818 26.5925C5.38818 26.5925 4.95068 26.405 4.57568 26.03C4.20068 25.655 4.01318 25.2175 4.01318 24.7175V5.96753C4.01318 5.46753 4.20068 5.03003 4.57568 4.65503C4.95068 4.28003 5.38818 4.09253 5.88818 4.09253H24.6382C25.1382 4.09253 25.5757 4.28003 25.9507 4.65503C26.3257 5.03003 26.5132 5.46753 26.5132 5.96753V24.7175C26.5132 25.2175 26.3257 25.655 25.9507 26.03C25.5757 26.405 25.1382 26.5925 24.6382 26.5925H5.88818ZM5.88818 24.7175H24.6382V5.96753H5.88818V24.7175ZM5.88818 5.96753V24.7175V5.96753Z" />
    </symbol>

    <symbol viewBox="0 0 7 13" id="pager-prev">
        <path d="M6 0.647903L1 6.1479L6 11.6479" stroke-width="1.4" />
    </symbol>

    <symbol viewBox="0 0 7 13" id="pager-next">
        <path d="M1 11.648L6 6.14803L1 0.648026" stroke-width="1.4" />
    </symbol>

    <symbol viewBox="0 0 19 19" id="page-size">
        <path d="M3.46275 5.32021L2.13525 6.6477L9.63525 14.1477L17.1353 6.64771L15.8078 5.32021L9.63525 11.4927L3.46275 5.32021Z" />
    </symbol>

    <symbol viewBox="0 0 13 14" id="icon-back">
        <rect y="7.00012" width="1.93522" height="9.19227" transform="rotate(-45 0 7.00012)" />
        <rect x="6.5" y="0.5" width="1.93522" height="9.19227" transform="rotate(45 6.5 0.5)" />
    </symbol>

    <symbol viewBox="0 0 24 24" id="icon-favorite">
        <path d="M12 20.975L10.975 20.05C9.20833 18.4334 7.75 17.0375 6.6 15.8625C5.45 14.6875 4.53333 13.6375 3.85 12.7125C3.16667 11.7875 2.6875 10.95 2.4125 10.2C2.1375 9.45002 2 8.69169 2 7.92502C2 6.42502 2.50417 5.17086 3.5125 4.16252C4.52083 3.15419 5.76667 2.65002 7.25 2.65002C8.2 2.65002 9.07917 2.87502 9.8875 3.32502C10.6958 3.77502 11.4 4.42502 12 5.27502C12.7 4.37502 13.4417 3.71252 14.225 3.28752C15.0083 2.86252 15.85 2.65002 16.75 2.65002C18.2333 2.65002 19.4792 3.15419 20.4875 4.16252C21.4958 5.17086 22 6.42502 22 7.92502C22 8.69169 21.8625 9.45002 21.5875 10.2C21.3125 10.95 20.8333 11.7875 20.15 12.7125C19.4667 13.6375 18.55 14.6875 17.4 15.8625C16.25 17.0375 14.7917 18.4334 13.025 20.05L12 20.975ZM12 19C13.6833 17.45 15.0708 16.1209 16.1625 15.0125C17.2542 13.9042 18.1208 12.9334 18.7625 12.1C19.4042 11.2667 19.8542 10.525 20.1125 9.87502C20.3708 9.22502 20.5 8.57502 20.5 7.92502C20.5 6.82502 20.15 5.92086 19.45 5.21252C18.75 4.50419 17.85 4.15002 16.75 4.15002C15.9 4.15002 15.1083 4.41252 14.375 4.93752C13.6417 5.46252 13.05 6.20002 12.6 7.15002H11.375C10.9417 6.21669 10.3583 5.48336 9.625 4.95002C8.89167 4.41669 8.1 4.15002 7.25 4.15002C6.15 4.15002 5.25 4.50419 4.55 5.21252C3.85 5.92086 3.5 6.82502 3.5 7.92502C3.5 8.57502 3.62917 9.22919 3.8875 9.88752C4.14583 10.5459 4.59583 11.2959 5.2375 12.1375C5.87917 12.9792 6.75 13.95 7.85 15.05C8.95 16.15 10.3333 17.4667 12 19Z" />
    </symbol>

    <symbol viewBox="0 0 24 24" id="icon-favorite-active">
        <rect x="3" y="5" width="7" height="6" />
        <rect x="4" y="4" width="6" height="6" />
        <rect x="9" y="5" width="2" height="6" />
        <rect x="13" y="5" width="2" height="6" />
        <rect x="14" y="4" width="6" height="6" />
        <rect x="15" y="5" width="6" height="6" />
        <rect x="4" y="6" width="16" height="6" />
        <rect x="5" y="8" width="14" height="6" />
        <rect x="6" y="9" width="11" height="6" />
        <rect x="7" y="10" width="10" height="6" />
        <rect x="8" y="9" width="10" height="6" />
        <rect x="8" y="11" width="8" height="6" />
        <rect x="10" y="13" width="4" height="6" />
        <rect x="9" y="12" width="6" height="6" />
        <path d="M12 20.975L10.975 20.05C9.20833 18.4334 7.75 17.0375 6.6 15.8625C5.45 14.6875 4.53333 13.6375 3.85 12.7125C3.16667 11.7875 2.6875 10.95 2.4125 10.2C2.1375 9.45002 2 8.69169 2 7.92502C2 6.42502 2.50417 5.17086 3.5125 4.16252C4.52083 3.15419 5.76667 2.65002 7.25 2.65002C8.2 2.65002 9.07917 2.87502 9.8875 3.32502C10.6958 3.77502 11.4 4.42502 12 5.27502C12.7 4.37502 13.4417 3.71252 14.225 3.28752C15.0083 2.86252 15.85 2.65002 16.75 2.65002C18.2333 2.65002 19.4792 3.15419 20.4875 4.16252C21.4958 5.17086 22 6.42502 22 7.92502C22 8.69169 21.8625 9.45002 21.5875 10.2C21.3125 10.95 20.8333 11.7875 20.15 12.7125C19.4667 13.6375 18.55 14.6875 17.4 15.8625C16.25 17.0375 14.7917 18.4334 13.025 20.05L12 20.975ZM12 19C13.6833 17.45 15.0708 16.1209 16.1625 15.0125C17.2542 13.9042 18.1208 12.9334 18.7625 12.1C19.4042 11.2667 19.8542 10.525 20.1125 9.87502C20.3708 9.22502 20.5 8.57502 20.5 7.92502C20.5 6.82502 20.15 5.92086 19.45 5.21252C18.75 4.50419 17.85 4.15002 16.75 4.15002C15.9 4.15002 15.1083 4.41252 14.375 4.93752C13.6417 5.46252 13.05 6.20002 12.6 7.15002H11.375C10.9417 6.21669 10.3583 5.48336 9.625 4.95002C8.89167 4.41669 8.1 4.15002 7.25 4.15002C6.15 4.15002 5.25 4.50419 4.55 5.21252C3.85 5.92086 3.5 6.82502 3.5 7.92502C3.5 8.57502 3.62917 9.22919 3.8875 9.88752C4.14583 10.5459 4.59583 11.2959 5.2375 12.1375C5.87917 12.9792 6.75 13.95 7.85 15.05C8.95 16.15 10.3333 17.4667 12 19Z" />
    </symbol>

    <symbol viewBox="0 0 19 14" id="events-view-1">
        <path d="M0.719727 2.8V0H4.91973V2.8H0.719727Z" />
        <path d="M7.71973 2.8V0H11.9197V2.8H7.71973Z" />
        <path d="M14.7197 2.8V0H18.9197V2.8H14.7197Z" />
        <path d="M0.719727 8.39998V5.59998H4.91973V8.39998H0.719727Z" />
        <path d="M7.71973 8.39998V5.59998H11.9197V8.39998H7.71973Z" />
        <path d="M14.7197 8.39998V5.59998H18.9197V8.39998H14.7197Z" />
        <path d="M0.719727 14V11.2H4.91973V14H0.719727Z" />
        <path d="M7.71973 14V11.2H11.9197V14H7.71973Z" />
        <path d="M14.7197 14V11.2H18.9197V14H14.7197Z" />
    </symbol>

    <symbol viewBox="0 0 21 14" id="events-view-2">
        <path d="M0.870117 2.1V0H20.1201V2.1H0.870117ZM0.870117 8.05V5.95H20.1201V8.05H0.870117ZM0.870117 14V11.9H20.1201V14H0.870117Z" />
    </symbol>

    <symbol viewBox="0 0 19 14" id="events-view-3">
        <path d="M0.120117 2.8V0H11.3201V2.8H0.120117Z" />
        <path d="M7.12012 2.8V0H11.3201V2.8H7.12012Z" />
        <path d="M14.1201 5.59998V0H18.3201V5.59998H14.1201Z" />
        <path d="M0.120117 14V5.59998H11.3201V14H0.120117Z" />
        <path d="M7.12012 8.39998V5.59998H11.3201V8.39998H7.12012Z" />
        <path d="M14.1201 8.39998V5.59998H18.3201V8.39998H14.1201Z" />
        <path d="M0.120117 14V11.2H4.32012V14H0.120117Z" />
        <path d="M7.12012 14V11.2H11.3201V14H7.12012Z" />
        <path d="M14.1201 14V11.2H18.3201V14H14.1201Z" />
    </symbol>

    <symbol viewBox="0 0 19 14" id="events-view-4">
        <path d="M0.320312 2.8V0H4.52031V2.8H0.320312Z" />
        <path d="M7.32031 5.59998V0H11.5203V5.59998H7.32031Z" />
        <path d="M14.3203 2.8V0H18.5203V2.8H14.3203Z" />
        <path d="M0.320312 14V5.59998H4.52031V14H0.320312Z" />
        <path d="M7.32031 8.39998V5.59998H11.5203V8.39998H7.32031Z" />
        <path d="M14.3203 8.39998V5.59998H18.5203V8.39998H14.3203Z" />
        <path d="M0.320312 14V11.2H4.52031V14H0.320312Z" />
        <path d="M7.32031 14V11.2H11.5203V14H7.32031Z" />
        <path d="M14.3203 14V5.59998H18.5203V14H14.3203Z" />
    </symbol>

    <symbol viewBox="0 0 25 24" id="icon-download">
        <path d="M6 20C5.6 20 5.25 19.85 4.95 19.55C4.65 19.25 4.5 18.9 4.5 18.5V14.925H6V18.5H19V14.925H20.5V18.5C20.5 18.9 20.35 19.25 20.05 19.55C19.75 19.85 19.4 20 19 20H6ZM12.5 16.175L7.675 11.35L8.75 10.275L11.75 13.275V4H13.25V13.275L16.25 10.275L17.325 11.35L12.5 16.175Z" />
    </symbol>

    <symbol viewBox="0 0 20 21" id="icon-print">
        <path d="M13.7082 6.93616V4.18616H6.2915V6.93616H5.0415V2.93616H14.9582V6.93616H13.7082ZM2.9165 8.18616H17.0832H5.0415H2.9165ZM15.3957 10.1653C15.5623 10.1653 15.7082 10.1028 15.8332 9.97782C15.9582 9.85282 16.0207 9.70699 16.0207 9.54032C16.0207 9.37366 15.9582 9.22782 15.8332 9.10282C15.7082 8.97782 15.5623 8.91532 15.3957 8.91532C15.229 8.91532 15.0832 8.97782 14.9582 9.10282C14.8332 9.22782 14.7707 9.37366 14.7707 9.54032C14.7707 9.70699 14.8332 9.85282 14.9582 9.97782C15.0832 10.1028 15.229 10.1653 15.3957 10.1653ZM13.7082 16.6862V12.6862H6.2915V16.6862H13.7082ZM14.9582 17.9362H5.0415V14.2695H1.6665V9.14449C1.6665 8.51949 1.87831 7.99518 2.30192 7.57157C2.72553 7.14796 3.24984 6.93616 3.87484 6.93616H16.1248C16.7498 6.93616 17.2741 7.14796 17.6978 7.57157C18.1214 7.99518 18.3332 8.51949 18.3332 9.14449V14.2695H14.9582V17.9362ZM17.0832 13.0195V9.14449C17.0832 8.86671 16.9929 8.63755 16.8123 8.45699C16.6318 8.27643 16.4026 8.18616 16.1248 8.18616H3.87484C3.59706 8.18616 3.36789 8.27643 3.18734 8.45699C3.00678 8.63755 2.9165 8.86671 2.9165 9.14449V13.0195H5.0415V11.4362H14.9582V13.0195H17.0832Z" />
    </symbol>

    <symbol viewBox="0 0 20 21" id="icon-email">
        <path d="M9.99984 10.8112L2.9165 6.16532V15.8528H11.0415V17.1028H2.9165C2.58317 17.1028 2.2915 16.9778 2.0415 16.7278C1.7915 16.4778 1.6665 16.1862 1.6665 15.8528V5.01949C1.6665 4.68615 1.7915 4.39449 2.0415 4.14449C2.2915 3.89449 2.58317 3.76949 2.9165 3.76949H17.0832C17.4165 3.76949 17.7082 3.89449 17.9582 4.14449C18.2082 4.39449 18.3332 4.68615 18.3332 5.01949V11.4778H17.0832V6.16532L9.99984 10.8112ZM9.99984 9.56115L17.0832 5.01949H2.9165L9.99984 9.56115ZM16.1248 19.5195L15.2498 18.6445L16.7707 17.1028H12.2915V15.8528H16.7707L15.229 14.3112L16.1248 13.4362L19.1665 16.4778L16.1248 19.5195ZM2.9165 6.16532V16.5612V11.4778V11.5612V5.01949V6.16532Z" />
    </symbol>

    <symbol viewBox="0 0 20 21" id="icon-share">
        <path d="M15.0002 18.5612C14.3613 18.5612 13.8196 18.3389 13.3752 17.8945C12.9307 17.45 12.7085 16.9084 12.7085 16.2695C12.7085 16.1723 12.7154 16.0645 12.7293 15.9462C12.7432 15.8284 12.771 15.7278 12.8127 15.6445L6.646 12.0195C6.42377 12.2417 6.17377 12.4153 5.896 12.5403C5.61822 12.6653 5.31961 12.7278 5.00016 12.7278C4.36127 12.7278 3.81961 12.5056 3.37516 12.0612C2.93072 11.6167 2.7085 11.075 2.7085 10.4362C2.7085 9.79727 2.93072 9.2556 3.37516 8.81116C3.81961 8.36671 4.36127 8.14449 5.00016 8.14449C5.31961 8.14449 5.61822 8.20699 5.896 8.33199C6.17377 8.45699 6.42377 8.6306 6.646 8.85282L12.8127 5.22782C12.771 5.14449 12.7432 5.04366 12.7293 4.92532C12.7154 4.80755 12.7085 4.70005 12.7085 4.60282C12.7085 3.96394 12.9307 3.42227 13.3752 2.97782C13.8196 2.53338 14.3613 2.31116 15.0002 2.31116C15.6391 2.31116 16.1807 2.53338 16.6252 2.97782C17.0696 3.42227 17.2918 3.96394 17.2918 4.60282C17.2918 5.24171 17.0696 5.78338 16.6252 6.22782C16.1807 6.67227 15.6391 6.89449 15.0002 6.89449C14.6807 6.89449 14.3821 6.83199 14.1043 6.70699C13.8266 6.58199 13.5766 6.40838 13.3543 6.18616L7.18766 9.81116C7.22933 9.89449 7.25711 9.99171 7.271 10.1028C7.28489 10.2139 7.29183 10.325 7.29183 10.4362C7.29183 10.5334 7.28489 10.6409 7.271 10.7587C7.25711 10.877 7.22933 10.9778 7.18766 11.0612L13.3543 14.6862C13.5766 14.4639 13.8266 14.2903 14.1043 14.1653C14.3821 14.0403 14.6807 13.9778 15.0002 13.9778C15.6391 13.9778 16.1807 14.2 16.6252 14.6445C17.0696 15.0889 17.2918 15.6306 17.2918 16.2695C17.2918 16.9084 17.0696 17.45 16.6252 17.8945C16.1807 18.3389 15.6391 18.5612 15.0002 18.5612ZM15.0002 5.64449C15.2918 5.64449 15.5385 5.54366 15.7402 5.34199C15.9413 5.14088 16.0418 4.89449 16.0418 4.60282C16.0418 4.31116 15.9413 4.06449 15.7402 3.86282C15.5385 3.66171 15.2918 3.56116 15.0002 3.56116C14.7085 3.56116 14.4621 3.66171 14.261 3.86282C14.0593 4.06449 13.9585 4.31116 13.9585 4.60282C13.9585 4.89449 14.0593 5.14088 14.261 5.34199C14.4621 5.54366 14.7085 5.64449 15.0002 5.64449ZM5.00016 11.4778C5.29183 11.4778 5.5385 11.377 5.74016 11.1753C5.94127 10.9742 6.04183 10.7278 6.04183 10.4362C6.04183 10.1445 5.94127 9.8981 5.74016 9.69699C5.5385 9.49532 5.29183 9.39449 5.00016 9.39449C4.7085 9.39449 4.46211 9.49532 4.261 9.69699C4.05933 9.8981 3.9585 10.1445 3.9585 10.4362C3.9585 10.7278 4.05933 10.9742 4.261 11.1753C4.46211 11.377 4.7085 11.4778 5.00016 11.4778ZM15.0002 17.3112C15.2918 17.3112 15.5385 17.2103 15.7402 17.0087C15.9413 16.8075 16.0418 16.5612 16.0418 16.2695C16.0418 15.9778 15.9413 15.7314 15.7402 15.5303C15.5385 15.3287 15.2918 15.2278 15.0002 15.2278C14.7085 15.2278 14.4621 15.3287 14.261 15.5303C14.0593 15.7314 13.9585 15.9778 13.9585 16.2695C13.9585 16.5612 14.0593 16.8075 14.261 17.0087C14.4621 17.2103 14.7085 17.3112 15.0002 17.3112Z" />
    </symbol>

    <symbol viewBox="0 0 17 17" id="window-photo-close">
        <path d="M16 1L1 16" stroke-width="1.5" stroke-linecap="round" stroke-linejoin="round" />
        <path d="M1 1L16 16" stroke-width="1.5" stroke-linecap="round" stroke-linejoin="round" />
    </symbol>

    <symbol viewBox="0 0 17 16" id="window-photo-download">
        <path d="M14.167 8L14.167 2.66667C14.167 2.31304 14.0177 1.97391 13.7521 1.72386C13.4864 1.47381 13.126 1.33333 12.7503 1.33333L4.25033 1.33333C3.8746 1.33333 3.51427 1.47381 3.24859 1.72386C2.98292 1.97391 2.83366 2.31305 2.83366 2.66667L2.83366 8" stroke-width="1.5" stroke-linecap="round" stroke-linejoin="round" />
        <path d="M5.66634 11.9998L8.49967 14.6665L11.333 11.9998" stroke-width="1.5" stroke-linecap="round" stroke-linejoin="round" />
        <path d="M8.5 14.6665L8.5 5.99984" stroke-width="1.5" stroke-linecap="round" stroke-linejoin="round" />
    </symbol>

    <symbol viewBox="0 0 17 16" id="window-photo-share">
        <path d="M12.75 5.3335C13.9236 5.3335 14.875 4.43807 14.875 3.3335C14.875 2.22893 13.9236 1.3335 12.75 1.3335C11.5764 1.3335 10.625 2.22893 10.625 3.3335C10.625 4.43807 11.5764 5.3335 12.75 5.3335Z" stroke-width="1.5" stroke-linecap="round" stroke-linejoin="round" />
        <path d="M4.25 10C5.4236 10 6.375 9.10457 6.375 8C6.375 6.89543 5.4236 6 4.25 6C3.07639 6 2.125 6.89543 2.125 8C2.125 9.10457 3.07639 10 4.25 10Z" stroke-width="1.5" stroke-linecap="round" stroke-linejoin="round" />
        <path d="M12.75 14.6665C13.9236 14.6665 14.875 13.7711 14.875 12.6665C14.875 11.5619 13.9236 10.6665 12.75 10.6665C11.5764 10.6665 10.625 11.5619 10.625 12.6665C10.625 13.7711 11.5764 14.6665 12.75 14.6665Z" stroke-width="1.5" stroke-linecap="round" stroke-linejoin="round" />
        <path d="M6.08496 9.00684L10.9229 11.6602" stroke-width="1.5" stroke-linecap="round" stroke-linejoin="round" />
        <path d="M10.9158 4.33984L6.08496 6.99318" stroke-width="1.5" stroke-linecap="round" stroke-linejoin="round" />
    </symbol>

    <symbol viewBox="0 0 25 25" id="window-photo-share-vk">
        <path d="M0.5 11.7002C0.5 6.26958 0.5 3.55431 2.18707 1.86724C3.87413 0.180176 6.5894 0.180176 12.02 0.180176H12.98C18.4106 0.180176 21.1259 0.180176 22.813 1.86724C24.5 3.55431 24.5 6.26958 24.5 11.7002V12.6602C24.5 18.0908 24.5 20.806 22.813 22.4931C21.1259 24.1802 18.4106 24.1802 12.98 24.1802H12.02C6.5894 24.1802 3.87413 24.1802 2.18707 22.4931C0.5 20.806 0.5 18.0908 0.5 12.6602V11.7002Z" />
        <path d="M13.2698 17.4705C7.79976 17.4705 4.6798 13.7205 4.5498 7.48047H7.28981C7.37981 12.0605 9.39976 14.0005 10.9998 14.4005V7.48047H13.5799V11.4305C15.1599 11.2605 16.8197 9.46047 17.3797 7.48047H19.9597C19.5297 9.92047 17.7297 11.7205 16.4497 12.4605C17.7297 13.0605 19.7798 14.6305 20.5598 17.4705H17.7197C17.1097 15.5705 15.5899 14.1005 13.5799 13.9005V17.4705H13.2698Z" fill="black" />
    </symbol>

    <symbol viewBox="0 0 25 25" id="window-photo-share-whatsapp">
        <path d="M7.12824 20.3715L7.49108 20.5856C9.01572 21.4863 10.7637 21.9627 12.5462 21.9636H12.5501C18.0244 21.9636 22.4799 17.5295 22.482 12.0797C22.4828 9.43847 21.4508 6.95528 19.5756 5.08691C17.7003 3.21888 15.207 2.18941 12.5537 2.18831C7.07519 2.18831 2.61974 6.62179 2.61767 12.0716C2.61695 13.9391 3.14175 15.7579 4.13611 17.3314L4.37245 17.7054L3.36886 21.3527L7.12824 20.3715ZM0.5 24.1779L2.19524 18.0159C1.1496 16.2125 0.599512 14.1667 0.600373 12.071C0.602922 5.51441 5.96311 0.180176 12.5504 0.180176C15.7468 0.181547 18.747 1.4199 21.0031 3.66764C23.2591 5.91534 24.501 8.90312 24.5 12.0806C24.4972 18.6369 19.1359 23.9722 12.5504 23.9722C12.5499 23.9722 12.5506 23.9722 12.5504 23.9722H12.5453C10.5454 23.9715 8.5803 23.4721 6.83497 22.5245L0.5 24.1779Z" fill="black" />
        <path d="M1.01176 12.077C1.01104 14.1 1.54204 16.075 2.55173 17.8162L0.915039 23.7649L7.0304 22.1686C8.7153 23.0826 10.6123 23.5651 12.543 23.5657H12.5479C18.9058 23.5657 24.0808 18.4156 24.0836 12.086C24.0848 9.01855 22.8859 6.1346 20.7078 3.96449C18.53 1.79469 15.6337 0.599096 12.5474 0.597656C6.18924 0.597656 1.01423 5.74707 1.01147 12.077L1.01176 12.077ZM12.5478 23.5657H12.5479H12.5478C12.5477 23.5657 12.5475 23.5657 12.5478 23.5657Z" />
        <path d="M0.600373 12.0738C0.59965 14.1695 1.14974 16.2155 2.19538 18.0187L0.5 24.1804L6.83477 22.5269C8.5802 23.4744 10.5452 23.9738 12.5451 23.9746H12.5502C19.1357 23.9746 24.497 18.6393 24.4998 12.0831C24.5009 8.90539 23.2589 5.91768 21.0029 3.67008C18.7467 1.42248 15.7466 0.183989 12.5502 0.182617C5.96325 0.182617 0.602927 5.51685 0.600172 12.0735L0.600373 12.0738ZM4.37258 17.7081L4.13611 17.3342C3.14176 15.7605 2.61695 13.9417 2.61768 12.0744C2.61985 6.62491 7.0752 2.19109 12.5537 2.19109C15.2067 2.19212 17.7001 3.22169 19.5756 5.08969C21.4509 6.95782 22.4828 9.44122 22.4821 12.0821C22.4797 17.5319 18.0242 21.966 12.5499 21.966H12.546C10.7635 21.965 9.01542 21.4887 7.49088 20.5882L7.12804 20.3741L3.36872 21.3552L4.37258 17.7081ZM12.5502 23.9746H12.5503H12.5502C12.55 23.9746 12.5499 23.9746 12.5502 23.9746Z" />
        <path fill-rule="evenodd" clip-rule="evenodd" d="M9.56385 7.10204C9.34015 6.60706 9.10477 6.59715 8.892 6.58844C8.71788 6.58107 8.51872 6.58155 8.3198 6.58155C8.12064 6.58155 7.79717 6.65594 7.52364 6.95337C7.24987 7.25081 6.47852 7.96981 6.47852 9.43211C6.47852 10.8945 7.54858 12.3076 7.69766 12.5061C7.847 12.7042 9.76329 15.8011 12.7979 16.9924C15.3202 17.9824 15.8335 17.7855 16.3809 17.7359C16.9283 17.6864 18.1475 17.0172 18.3962 16.3231C18.6451 15.6291 18.6451 15.0343 18.5704 14.91C18.4958 14.7862 18.2967 14.7118 17.9981 14.5633C17.6994 14.4146 16.2315 13.6955 15.9579 13.5963C15.6841 13.4972 15.4851 13.4477 15.2859 13.7453C15.0869 14.0425 14.515 14.7118 14.3408 14.91C14.1666 15.1087 13.9924 15.1335 13.6938 14.9848C13.3951 14.8357 12.4335 14.5221 11.2927 13.5097C10.4051 12.7219 9.80586 11.749 9.6316 11.4514C9.45747 11.1542 9.61301 10.9932 9.76271 10.845C9.89687 10.7118 10.0614 10.498 10.2107 10.3245C10.3597 10.1509 10.4094 10.0271 10.5089 9.8288C10.6086 9.63042 10.5588 9.45684 10.4841 9.30817C10.4094 9.1595 9.82918 7.68969 9.56367 7.10195" fill="black" />
    </symbol>

    <symbol viewBox="0 0 25 25" id="window-photo-share-tg">
        <path d="M12.5 24.1802C19.1274 24.1802 24.5 18.8076 24.5 12.1802C24.5 5.55276 19.1274 0.180176 12.5 0.180176C5.87258 0.180176 0.5 5.55276 0.5 12.1802C0.5 18.8076 5.87258 24.1802 12.5 24.1802Z" />
        <path d="M10.5105 14.0679L10.2372 16.9725C10.2372 16.9725 10.1228 17.8625 11.0126 16.9725C11.9024 16.0825 12.7541 15.3962 12.7541 15.3962" fill="black" />
        <path d="M8.64822 13.198L5.71962 12.2438C5.71962 12.2438 5.36962 12.1018 5.48232 11.7798C5.50552 11.7134 5.55232 11.6569 5.69232 11.5598C6.34122 11.1075 17.7029 7.02377 17.7029 7.02377C17.7029 7.02377 18.0237 6.91567 18.2129 6.98757C18.2597 7.00206 18.3018 7.02872 18.335 7.06482C18.3681 7.10093 18.391 7.14519 18.4014 7.19307C18.4219 7.27763 18.4304 7.36464 18.4268 7.45157C18.4259 7.52677 18.4168 7.59647 18.4099 7.70577C18.3407 8.82227 16.2699 17.1551 16.2699 17.1551C16.2699 17.1551 16.146 17.6427 15.7021 17.6594C15.593 17.6629 15.4844 17.6444 15.3826 17.605C15.2808 17.5657 15.1879 17.5062 15.1096 17.4302C14.2385 16.6809 11.2277 14.6575 10.5624 14.2125C10.5474 14.2022 10.5348 14.1889 10.5254 14.1734C10.5159 14.1579 10.51 14.1405 10.5078 14.1225C10.4985 14.0756 10.5495 14.0175 10.5495 14.0175C10.5495 14.0175 15.7921 9.35747 15.9316 8.86827C15.9424 8.83037 15.9016 8.81167 15.8468 8.82827C15.4986 8.95637 9.46242 12.7683 8.79622 13.189C8.74827 13.2035 8.69758 13.2066 8.64822 13.198Z" fill="black" />
    </symbol>

    <symbol viewBox="0 0 10 16" id="gallery-next">
        <path d="M1 15L8 8L0.999999 1"  stroke-width="2" />
    </symbol>

    <symbol viewBox="0 0 10 16" id="gallery-prev">
        <path d="M9 1L2 8L9 15" stroke-width="2" />
    </symbol>

    <symbol viewBox="0 0 17 15" id="filter-arrow">
        <path d="M2.66917 3.99487L1.47606 5.0063L8.21678 10.7206L14.9575 5.0063L13.7644 3.99487L8.21678 8.69773L2.66917 3.99487Z" />
    </symbol>

    <symbol viewBox="0 0 24 25" id="page-404-link">
        <path d="M4.49961 21.272V12.022L2.62461 13.447L1.72461 12.247L4.49961 10.122V7.24697H5.99961V8.97197L11.9996 4.39697L22.2746 12.247L21.3746 13.422L19.4996 12.022V21.272H4.49961ZM5.99961 19.772H10.7996V15.397H13.1996V19.772H17.9996V10.872L11.9996 6.29697L5.99961 10.872V19.772Z" />
    </symbol>

    <symbol viewBox="0 0 18 18" id="window-close">
        <path d="M16.6183 1.41333L1.61829 16.4133" stroke-width="2" stroke-linecap="round" stroke-linejoin="round" />
        <path d="M1.61829 1.41333L16.6183 16.4133" stroke-width="2" stroke-linecap="round" stroke-linejoin="round" />
    </symbol>

    <symbol viewBox="0 0 25 25" id="file-remove">
        <path d="M15.5666 8.5957L12.9766 11.1857L10.3866 8.5957L8.97656 10.0057L11.5666 12.5957L8.97656 15.1857L10.3866 16.5957L12.9766 14.0057L15.5666 16.5957L16.9766 15.1857L14.3866 12.5957L16.9766 10.0057L15.5666 8.5957ZM12.9766 2.5957C7.44656 2.5957 2.97656 7.0657 2.97656 12.5957C2.97656 18.1257 7.44656 22.5957 12.9766 22.5957C18.5066 22.5957 22.9766 18.1257 22.9766 12.5957C22.9766 7.0657 18.5066 2.5957 12.9766 2.5957ZM12.9766 20.5957C8.56656 20.5957 4.97656 17.0057 4.97656 12.5957C4.97656 8.1857 8.56656 4.5957 12.9766 4.5957C17.3866 4.5957 20.9766 8.1857 20.9766 12.5957C20.9766 17.0057 17.3866 20.5957 12.9766 20.5957Z" />
    </symbol>

    <symbol viewBox="0 0 44 45" id="up-link">
        <path d="M17.3996 25.4381L16.3496 24.3631L21.9996 18.7131L27.6496 24.3631L26.5996 25.4381L21.9996 20.8381L17.3996 25.4381Z" />
    </symbol>

    <symbol viewBox="0 0 25 24" id="auth">
        <path d="M12.5 19.625L11.425 18.55L17.25 12.75H4.875V11.25H17.25L11.425 5.45L12.5 4.375L20.125 12L12.5 19.625Z" />
    </symbol>

    <symbol viewBox="0 0 25 25" id="view-password">
        <path d="M20.2508 22.3331L16.2258 18.3081C15.7091 18.5081 15.1384 18.6664 14.5138 18.7831C13.8884 18.8997 13.2174 18.9581 12.5008 18.9581C10.1508 18.9581 8.03812 18.3121 6.16278 17.0201C4.28812 15.7287 2.91745 14.0414 2.05078 11.9581C2.41745 11.0747 2.89245 10.2497 3.47578 9.48306C4.05911 8.71639 4.70078 8.05806 5.40078 7.50806L2.62578 4.70806L3.67578 3.63306L21.3258 21.2831L20.2508 22.3331ZM12.5008 16.0331C12.7174 16.0331 12.9341 16.0164 13.1508 15.9831C13.3674 15.9497 13.5591 15.8997 13.7258 15.8331L8.62578 10.7331C8.55911 10.9164 8.50911 11.1164 8.47578 11.3331C8.44245 11.5497 8.42578 11.7581 8.42578 11.9581C8.42578 13.0914 8.82178 14.0537 9.61378 14.8451C10.4051 15.6371 11.3674 16.0331 12.5008 16.0331ZM19.4508 16.5331L16.3258 13.4331C16.3924 13.2164 16.4508 12.9871 16.5008 12.7451C16.5508 12.5037 16.5758 12.2414 16.5758 11.9581C16.5758 10.8247 16.1798 9.86239 15.3878 9.07106C14.5964 8.27906 13.6341 7.88306 12.5008 7.88306C12.2174 7.88306 11.9591 7.90806 11.7258 7.95806C11.4924 8.00806 11.2591 8.08306 11.0258 8.18306L8.52578 5.68306C9.15911 5.43306 9.80511 5.24972 10.4638 5.13306C11.1218 5.01639 11.8008 4.95806 12.5008 4.95806C14.8508 4.95806 16.9674 5.60406 18.8508 6.89606C20.7341 8.18739 22.1008 9.87472 22.9508 11.9581C22.5841 12.8581 22.1091 13.6954 21.5258 14.4701C20.9424 15.2454 20.2508 15.9331 19.4508 16.5331ZM15.1758 12.3081L12.1758 9.30806C12.6091 9.22472 13.0218 9.25806 13.4138 9.40806C13.8051 9.55806 14.1424 9.77472 14.4258 10.0581C14.7258 10.3581 14.9424 10.7037 15.0758 11.0951C15.2091 11.4871 15.2424 11.8914 15.1758 12.3081Z" />
    </symbol>

    <symbol viewBox="0 0 25 25" id="btn-add">
        <path d="M11.7695 19.25V13.25H5.76953V11.75H11.7695V5.75H13.2695V11.75H19.2695V13.25H13.2695V19.25H11.7695Z" />
    </symbol>

    <symbol viewBox="0 0 25 25" id="btn-filter">
        <path d="M22.5195 3.5H2.51953L10.5195 12.96V19.5L14.5195 21.5V12.96L22.5195 3.5Z" stroke-width="2" stroke-linecap="round" stroke-linejoin="round" />
    </symbol>

    <symbol viewBox="0 0 25 24" id="icon-date">
        <path d="M6.13203 20.5C5.63203 20.5 5.20703 20.325 4.85703 19.975C4.50703 19.625 4.33203 19.2 4.33203 18.7V5.3C4.33203 4.8 4.50703 4.375 4.85703 4.025C5.20703 3.675 5.63203 3.5 6.13203 3.5H7.53203V1.375H9.05703V3.5H16.632V1.375H18.132V3.5H19.532C20.032 3.5 20.457 3.675 20.807 4.025C21.157 4.375 21.332 4.8 21.332 5.3V18.7C21.332 19.2 21.157 19.625 20.807 19.975C20.457 20.325 20.032 20.5 19.532 20.5H6.13203ZM6.13203 19H19.532C19.5987 19 19.6654 18.9667 19.732 18.9C19.7987 18.8333 19.832 18.7667 19.832 18.7V9.3H5.83203V18.7C5.83203 18.7667 5.86536 18.8333 5.93203 18.9C5.9987 18.9667 6.06536 19 6.13203 19ZM5.83203 7.8H19.832V5.3C19.832 5.23333 19.7987 5.16667 19.732 5.1C19.6654 5.03333 19.5987 5 19.532 5H6.13203C6.06536 5 5.9987 5.03333 5.93203 5.1C5.86536 5.16667 5.83203 5.23333 5.83203 5.3V7.8ZM12.832 13.075C12.582 13.075 12.3737 12.9873 12.207 12.812C12.0404 12.6373 11.957 12.4333 11.957 12.2C11.957 11.95 12.0404 11.7373 12.207 11.562C12.3737 11.3873 12.582 11.3 12.832 11.3C13.082 11.3 13.2904 11.3873 13.457 11.562C13.6237 11.7373 13.707 11.95 13.707 12.2C13.707 12.4333 13.6237 12.6373 13.457 12.812C13.2904 12.9873 13.082 13.075 12.832 13.075ZM8.83203 13.075C8.58203 13.075 8.3737 12.9873 8.20703 12.812C8.04036 12.6373 7.95703 12.4333 7.95703 12.2C7.95703 11.95 8.04036 11.7373 8.20703 11.562C8.3737 11.3873 8.58203 11.3 8.83203 11.3C9.08203 11.3 9.29036 11.3873 9.45703 11.562C9.6237 11.7373 9.70703 11.95 9.70703 12.2C9.70703 12.4333 9.6237 12.6373 9.45703 12.812C9.29036 12.9873 9.08203 13.075 8.83203 13.075ZM16.832 13.075C16.582 13.075 16.3737 12.9873 16.207 12.812C16.0404 12.6373 15.957 12.4333 15.957 12.2C15.957 11.95 16.0404 11.7373 16.207 11.562C16.3737 11.3873 16.582 11.3 16.832 11.3C17.082 11.3 17.2904 11.3873 17.457 11.562C17.6237 11.7373 17.707 11.95 17.707 12.2C17.707 12.4333 17.6237 12.6373 17.457 12.812C17.2904 12.9873 17.082 13.075 16.832 13.075ZM12.832 17C12.582 17 12.3737 16.9127 12.207 16.738C12.0404 16.5627 11.957 16.3583 11.957 16.125C11.957 15.875 12.0404 15.6627 12.207 15.488C12.3737 15.3127 12.582 15.225 12.832 15.225C13.082 15.225 13.2904 15.3127 13.457 15.488C13.6237 15.6627 13.707 15.875 13.707 16.125C13.707 16.3583 13.6237 16.5627 13.457 16.738C13.2904 16.9127 13.082 17 12.832 17ZM8.83203 17C8.58203 17 8.3737 16.9127 8.20703 16.738C8.04036 16.5627 7.95703 16.3583 7.95703 16.125C7.95703 15.875 8.04036 15.6627 8.20703 15.488C8.3737 15.3127 8.58203 15.225 8.83203 15.225C9.08203 15.225 9.29036 15.3127 9.45703 15.488C9.6237 15.6627 9.70703 15.875 9.70703 16.125C9.70703 16.3583 9.6237 16.5627 9.45703 16.738C9.29036 16.9127 9.08203 17 8.83203 17ZM16.832 17C16.582 17 16.3737 16.9127 16.207 16.738C16.0404 16.5627 15.957 16.3583 15.957 16.125C15.957 15.875 16.0404 15.6627 16.207 15.488C16.3737 15.3127 16.582 15.225 16.832 15.225C17.082 15.225 17.2904 15.3127 17.457 15.488C17.6237 15.6627 17.707 15.875 17.707 16.125C17.707 16.3583 17.6237 16.5627 17.457 16.738C17.2904 16.9127 17.082 17 16.832 17Z" />
    </symbol>

    <symbol viewBox="0 0 18 19" id="icon-location">
        <path d="M9 9.3125C9.3625 9.3125 9.672 9.1845 9.9285 8.9285C10.1845 8.672 10.3125 8.3625 10.3125 8C10.3125 7.6375 10.1845 7.328 9.9285 7.0715C9.672 6.8155 9.3625 6.6875 9 6.6875C8.6375 6.6875 8.328 6.8155 8.0715 7.0715C7.8155 7.328 7.6875 7.6375 7.6875 8C7.6875 8.3625 7.8155 8.672 8.0715 8.9285C8.328 9.1845 8.6375 9.3125 9 9.3125ZM9 15.35C10.55 13.975 11.7187 12.6592 12.5062 11.4027C13.2937 10.1467 13.6875 9.0625 13.6875 8.15C13.6875 6.725 13.2345 5.5625 12.3285 4.6625C11.422 3.7625 10.3125 3.3125 9 3.3125C7.6875 3.3125 6.578 3.7625 5.6715 4.6625C4.7655 5.5625 4.3125 6.725 4.3125 8.15C4.3125 9.0625 4.70625 10.1467 5.49375 11.4027C6.28125 12.6592 7.45 13.975 9 15.35ZM9 16.85C7.05 15.15 5.59375 13.575 4.63125 12.125C3.66875 10.675 3.1875 9.35 3.1875 8.15C3.1875 6.3375 3.772 4.8905 4.941 3.809C6.1095 2.728 7.4625 2.1875 9 2.1875C10.5375 2.1875 11.8908 2.728 13.0598 3.809C14.2283 4.8905 14.8125 6.3375 14.8125 8.15C14.8125 9.35 14.3313 10.675 13.3688 12.125C12.4063 13.575 10.95 15.15 9 16.85Z" />
    </symbol>

</svg>