<svg version="1.1" xmlns="http://www.w3.org/2000/svg" xmlns:xlink="http://www.w3.org/1999/xlink">

    <symbol viewBox="0 0 224 108" id="logo">
        <path d="M24.63 0.5L19.04 16.27L13.54 0.5H0.18V32.99H9.37V13.81L16.63 32.99H20.09L27.49 13.81V32.99H37.72V0.5H24.63Z" />
        <path d="M66.08 16.91V16.54C66.08 11.04 63.44 8.04 59.35 8.04C55.26 8.04 52.76 11.04 52.76 16.54V16.91C52.76 22.45 55.35 25.49 59.44 25.49C63.53 25.49 66.08 22.31 66.08 16.91V16.91ZM42 17V16.64C42 6.54 49.63 0 59.35 0C69.35 0 76.8 6 76.8 16.31V16.68C76.8 26.81 69.8 33.58 59.17 33.58C48.54 33.58 42 26.81 42 17Z" />
        <path d="M78.44 22.59H88.2C88.39 24.59 89.39 26.31 92.75 26.31C95.16 26.31 96.34 25.22 96.34 23.63C96.34 22.04 95.21 21.35 91.71 20.86C82.34 19.86 79.16 17.09 79.16 10.4C79.16 4.4 84.07 0.0400009 92.16 0.0400009C100.25 0.0400009 104.7 3.31 105.25 10.4H95.7C95.6943 9.955 95.5956 9.51611 95.4102 9.11154C95.2247 8.70698 94.9567 8.34569 94.6233 8.0509C94.2899 7.75611 93.8985 7.53434 93.4743 7.39986C93.05 7.26537 92.6024 7.22114 92.16 7.27C90.02 7.27 88.93 8.27 88.93 9.63C88.93 10.99 89.93 11.91 93.48 12.36C101.66 13.22 106.2 15.36 106.2 22.54C106.2 28.54 101.48 33.54 92.75 33.54C83.57 33.54 78.66 29.86 78.44 22.54" />
        <path d="M108.52 17V16.64C108.52 6.64 115.75 0.0499992 125.33 0.0499992C134.11 0.0499992 140.01 4.05 140.78 12.86H130.15C129.84 9.86 128.24 8.18 125.38 8.18C121.65 8.18 119.38 11.09 119.38 16.59V16.95C119.38 22.36 121.56 25.36 125.56 25.36C128.47 25.36 130.56 23.86 130.93 20.59H141.19C140.65 29.13 134.37 33.59 125.79 33.59C114.07 33.59 108.52 26.91 108.52 16.96" />
        <path d="M167.28 16.91V16.54C167.28 11.04 164.64 8.04 160.55 8.04C156.46 8.04 154 11 154 16.54V16.91C154 22.45 156.6 25.49 160.68 25.49C164.76 25.49 167.32 22.31 167.32 16.91H167.28ZM143.23 16.91V16.55C143.23 6.55 150.87 -0.0400009 160.59 -0.0400009C170.55 -9.16421e-07 178 6 178 16.31V16.68C178 26.81 171.05 33.58 160.37 33.58C149.69 33.58 143.19 26.81 143.19 17" />
        <path d="M213.9 0.5L209.95 20.13L205.54 0.5H196.59L192.69 19.9L188.95 0.5H178.55L186.09 32.99H196.36L200.95 13.59L205.49 32.99H215.9L223.45 0.5H213.9Z" />
        <path d="M0 56.78V37.69H10.27V56.37C10.27 60.6 11.18 62.69 14.86 62.69C18.54 62.69 19.41 60.6 19.41 56.33V37.69H29.77V56.69C29.77 66.46 23.95 70.78 14.86 70.78C5.36 70.78 0 66.05 0 56.78Z" />
        <path d="M47.12 52.42C49.99 52.42 51.35 51.24 51.35 48.87V48.69C51.35 46.33 49.94 45.42 47.17 45.42H44.71V52.42H47.12ZM34.44 37.69H47.71C56.71 37.69 61.3 41.28 61.3 48.24V48.42C61.3954 50.2356 60.915 52.0349 59.9274 53.5613C58.9397 55.0876 57.4952 56.2631 55.8 56.92L63.21 70.19H52.39L46.39 59.05H44.71V70.19H34.44V37.69Z" />
        <path d="M81.2 63.42C83.83 63.42 85.06 62.19 85.06 60.01V59.83C85.06 57.69 83.88 56.51 80.97 56.51H77.97V63.42H81.2ZM81.06 50.37C83.61 50.37 84.6 49.51 84.6 47.51V47.33C84.6 45.38 83.6 44.42 81.02 44.42H77.92V50.37H81.06ZM67.88 37.69H83.24C91.24 37.69 94.33 41.38 94.33 46.19V46.38C94.33 50.15 92.33 52.51 88.69 53.38C92.51 54.06 95.19 56.43 95.19 60.97V61.16C95.19 66.92 91.51 70.16 83.19 70.16H67.88V37.69Z" />
        <path d="M112.86 57.78H119.27L116.09 46L112.86 57.78ZM110.09 37.69H123.41L133.59 70.19H122.68L121.18 64.77H110.91L109.46 70.19H99.87L110.09 37.69Z" />
        <path d="M138.26 37.7H149.8L159.03 54.88V37.7H168.07V70.19H158.21L147.35 50.73V70.19H138.26V37.7Z" />
        <path d="M0.18 74.89V107.39H10.5V96.48H20.32V88.88H10.5V82.84H22.68V74.89H0.18Z" />
        <path d="M48.67 91.29V90.93C48.67 85.43 46.03 82.44 41.94 82.44C37.85 82.44 35.35 85.38 35.35 90.93V91.29C35.35 96.84 37.95 99.88 42.04 99.88C46.13 99.88 48.67 96.7 48.67 91.29V91.29ZM24.59 91.29V91C24.59 81 32.22 74.41 41.94 74.41C51.94 74.41 59.4 80.41 59.4 90.73V91.09C59.4 101.22 52.4 108 41.76 108C31.12 108 24.59 101.2 24.59 91.34" />
        <path d="M76.26 89.62C79.12 89.62 80.48 88.44 80.48 86.07V85.89C80.48 83.53 79.07 82.62 76.3 82.62H73.85V89.62H76.26ZM63.57 74.89H76.85C85.85 74.89 90.44 78.48 90.44 85.43V85.62C90.5333 87.4339 90.0519 89.231 89.0644 90.7553C88.0768 92.2797 86.6335 93.4537 84.94 94.11L92.34 107.38H81.53L75.53 96.25H73.85V107.38H63.57V74.89Z" />
        <path d="M95 94V74.89H105.27V93.56C105.27 97.8 106.17 99.88 109.86 99.88C113.55 99.88 114.4 97.8 114.4 93.53V74.89H124.76V93.89C124.76 103.66 118.95 107.98 109.86 107.98C100.34 108 95 103.25 95 94Z" />
        <path d="M154.87 74.89L149.28 90.66L143.78 74.89H130.42V107.39H139.6V88.2L146.87 107.39H150.33L157.73 88.2V107.39H167.96V74.89H154.87Z" />
    </symbol>

    <symbol viewBox="0 0 24 24" id="header-search">
        <path d="M11 19C15.4183 19 19 15.4183 19 11C19 6.58172 15.4183 3 11 3C6.58172 3 3 6.58172 3 11C3 15.4183 6.58172 19 11 19Z" stroke-width="2" stroke-linecap="round" stroke-linejoin="round" />
        <path d="M21.0004 20.9999L16.6504 16.6499" stroke-width="2" stroke-linecap="round" stroke-linejoin="round" />
    </symbol>

    <symbol viewBox="0 0 25 24" id="header-search-close">
        <path d="M2 1.5L23.0312 22.5312" stroke-linecap="round" stroke-linejoin="round" />
        <path d="M23.0312 1.5L2.00003 22.5312" stroke-linecap="round" stroke-linejoin="round" />
    </symbol>

    <symbol viewBox="0 0 25 25" id="welcome-slider-place">
        <path d="M12.2632 17.6425C13.9965 16.2592 15.3049 14.9299 16.1882 13.6545C17.0715 12.3799 17.5132 11.1592 17.5132 9.99253C17.5132 9.0092 17.3338 8.17153 16.9752 7.47953C16.6172 6.7882 16.1758 6.22986 15.6512 5.80453C15.1258 5.37986 14.5549 5.07153 13.9382 4.87953C13.3215 4.6882 12.7632 4.59253 12.2632 4.59253C11.7632 4.59253 11.2049 4.6882 10.5882 4.87953C9.97152 5.07153 9.40085 5.37986 8.87618 5.80453C8.35085 6.22986 7.90885 6.7882 7.55018 7.47953C7.19218 8.17153 7.01318 9.0092 7.01318 9.99253C7.01318 11.1592 7.45485 12.3799 8.33818 13.6545C9.22152 14.9299 10.5299 16.2592 12.2632 17.6425ZM12.2632 19.5425C9.99652 17.8425 8.30485 16.2049 7.18818 14.6295C6.07152 13.0549 5.51318 11.5092 5.51318 9.99253C5.51318 8.8592 5.71752 7.8632 6.12618 7.00453C6.53418 6.14653 7.05918 5.42586 7.70118 4.84253C8.34252 4.2592 9.06752 3.82186 9.87618 3.53053C10.6842 3.23853 11.4799 3.09253 12.2632 3.09253C13.0465 3.09253 13.8425 3.23853 14.6512 3.53053C15.4592 3.82186 16.1839 4.2592 16.8252 4.84253C17.4672 5.42586 17.9925 6.14653 18.4012 7.00453C18.8092 7.8632 19.0132 8.8592 19.0132 9.99253C19.0132 11.5092 18.4549 13.0549 17.3382 14.6295C16.2215 16.2049 14.5299 17.8425 12.2632 19.5425ZM12.2632 11.5925C12.7465 11.5925 13.1592 11.4219 13.5012 11.0805C13.8425 10.7385 14.0132 10.3259 14.0132 9.84253C14.0132 9.3592 13.8425 8.94653 13.5012 8.60453C13.1592 8.2632 12.7465 8.09253 12.2632 8.09253C11.7799 8.09253 11.3672 8.2632 11.0252 8.60453C10.6839 8.94653 10.5132 9.3592 10.5132 9.84253C10.5132 10.3259 10.6839 10.7385 11.0252 11.0805C11.3672 11.4219 11.7799 11.5925 12.2632 11.5925ZM5.51318 22.5925V21.0925H19.0132V22.5925H5.51318Z" />
    </symbol>

    <symbol viewBox="0 0 31 31" id="icon-photos">
        <path d="M7.63818 21.6863H22.9194L18.3257 15.5613L14.2007 20.905L11.2944 16.9363L7.63818 21.6863ZM5.88818 26.5925C5.38818 26.5925 4.95068 26.405 4.57568 26.03C4.20068 25.655 4.01318 25.2175 4.01318 24.7175V5.96753C4.01318 5.46753 4.20068 5.03003 4.57568 4.65503C4.95068 4.28003 5.38818 4.09253 5.88818 4.09253H24.6382C25.1382 4.09253 25.5757 4.28003 25.9507 4.65503C26.3257 5.03003 26.5132 5.46753 26.5132 5.96753V24.7175C26.5132 25.2175 26.3257 25.655 25.9507 26.03C25.5757 26.405 25.1382 26.5925 24.6382 26.5925H5.88818ZM5.88818 24.7175H24.6382V5.96753H5.88818V24.7175ZM5.88818 5.96753V24.7175V5.96753Z" />
    </symbol>

    <symbol viewBox="0 0 7 13" id="pager-prev">
        <path d="M6 0.647903L1 6.1479L6 11.6479" stroke-width="1.4" />
    </symbol>

    <symbol viewBox="0 0 7 13" id="pager-next">
        <path d="M1 11.648L6 6.14803L1 0.648026" stroke-width="1.4" />
    </symbol>

    <symbol viewBox="0 0 19 19" id="page-size">
        <path d="M3.46275 5.32021L2.13525 6.6477L9.63525 14.1477L17.1353 6.64771L15.8078 5.32021L9.63525 11.4927L3.46275 5.32021Z" />
    </symbol>

    <symbol viewBox="0 0 13 14" id="icon-back">
        <rect y="7.00012" width="1.93522" height="9.19227" transform="rotate(-45 0 7.00012)" />
        <rect x="6.5" y="0.5" width="1.93522" height="9.19227" transform="rotate(45 6.5 0.5)" />
    </symbol>

    <symbol viewBox="0 0 24 24" id="icon-favorite">
        <path d="M12 20.975L10.975 20.05C9.20833 18.4334 7.75 17.0375 6.6 15.8625C5.45 14.6875 4.53333 13.6375 3.85 12.7125C3.16667 11.7875 2.6875 10.95 2.4125 10.2C2.1375 9.45002 2 8.69169 2 7.92502C2 6.42502 2.50417 5.17086 3.5125 4.16252C4.52083 3.15419 5.76667 2.65002 7.25 2.65002C8.2 2.65002 9.07917 2.87502 9.8875 3.32502C10.6958 3.77502 11.4 4.42502 12 5.27502C12.7 4.37502 13.4417 3.71252 14.225 3.28752C15.0083 2.86252 15.85 2.65002 16.75 2.65002C18.2333 2.65002 19.4792 3.15419 20.4875 4.16252C21.4958 5.17086 22 6.42502 22 7.92502C22 8.69169 21.8625 9.45002 21.5875 10.2C21.3125 10.95 20.8333 11.7875 20.15 12.7125C19.4667 13.6375 18.55 14.6875 17.4 15.8625C16.25 17.0375 14.7917 18.4334 13.025 20.05L12 20.975ZM12 19C13.6833 17.45 15.0708 16.1209 16.1625 15.0125C17.2542 13.9042 18.1208 12.9334 18.7625 12.1C19.4042 11.2667 19.8542 10.525 20.1125 9.87502C20.3708 9.22502 20.5 8.57502 20.5 7.92502C20.5 6.82502 20.15 5.92086 19.45 5.21252C18.75 4.50419 17.85 4.15002 16.75 4.15002C15.9 4.15002 15.1083 4.41252 14.375 4.93752C13.6417 5.46252 13.05 6.20002 12.6 7.15002H11.375C10.9417 6.21669 10.3583 5.48336 9.625 4.95002C8.89167 4.41669 8.1 4.15002 7.25 4.15002C6.15 4.15002 5.25 4.50419 4.55 5.21252C3.85 5.92086 3.5 6.82502 3.5 7.92502C3.5 8.57502 3.62917 9.22919 3.8875 9.88752C4.14583 10.5459 4.59583 11.2959 5.2375 12.1375C5.87917 12.9792 6.75 13.95 7.85 15.05C8.95 16.15 10.3333 17.4667 12 19Z" />
    </symbol>

    <symbol viewBox="0 0 19 14" id="events-view-1">
        <path d="M0.719727 2.8V0H4.91973V2.8H0.719727Z" />
        <path d="M7.71973 2.8V0H11.9197V2.8H7.71973Z" />
        <path d="M14.7197 2.8V0H18.9197V2.8H14.7197Z" />
        <path d="M0.719727 8.39998V5.59998H4.91973V8.39998H0.719727Z" />
        <path d="M7.71973 8.39998V5.59998H11.9197V8.39998H7.71973Z" />
        <path d="M14.7197 8.39998V5.59998H18.9197V8.39998H14.7197Z" />
        <path d="M0.719727 14V11.2H4.91973V14H0.719727Z" />
        <path d="M7.71973 14V11.2H11.9197V14H7.71973Z" />
        <path d="M14.7197 14V11.2H18.9197V14H14.7197Z" />
    </symbol>

    <symbol viewBox="0 0 21 14" id="events-view-2">
        <path d="M0.870117 2.1V0H20.1201V2.1H0.870117ZM0.870117 8.05V5.95H20.1201V8.05H0.870117ZM0.870117 14V11.9H20.1201V14H0.870117Z" />
    </symbol>

    <symbol viewBox="0 0 19 14" id="events-view-3">
        <path d="M0.120117 2.8V0H11.3201V2.8H0.120117Z" />
        <path d="M7.12012 2.8V0H11.3201V2.8H7.12012Z" />
        <path d="M14.1201 5.59998V0H18.3201V5.59998H14.1201Z" />
        <path d="M0.120117 14V5.59998H11.3201V14H0.120117Z" />
        <path d="M7.12012 8.39998V5.59998H11.3201V8.39998H7.12012Z" />
        <path d="M14.1201 8.39998V5.59998H18.3201V8.39998H14.1201Z" />
        <path d="M0.120117 14V11.2H4.32012V14H0.120117Z" />
        <path d="M7.12012 14V11.2H11.3201V14H7.12012Z" />
        <path d="M14.1201 14V11.2H18.3201V14H14.1201Z" />
    </symbol>

    <symbol viewBox="0 0 19 14" id="events-view-4">
        <path d="M0.320312 2.8V0H4.52031V2.8H0.320312Z" />
        <path d="M7.32031 5.59998V0H11.5203V5.59998H7.32031Z" />
        <path d="M14.3203 2.8V0H18.5203V2.8H14.3203Z" />
        <path d="M0.320312 14V5.59998H4.52031V14H0.320312Z" />
        <path d="M7.32031 8.39998V5.59998H11.5203V8.39998H7.32031Z" />
        <path d="M14.3203 8.39998V5.59998H18.5203V8.39998H14.3203Z" />
        <path d="M0.320312 14V11.2H4.52031V14H0.320312Z" />
        <path d="M7.32031 14V11.2H11.5203V14H7.32031Z" />
        <path d="M14.3203 14V5.59998H18.5203V14H14.3203Z" />
    </symbol>

    <symbol viewBox="0 0 25 24" id="icon-download">
        <path d="M6 20C5.6 20 5.25 19.85 4.95 19.55C4.65 19.25 4.5 18.9 4.5 18.5V14.925H6V18.5H19V14.925H20.5V18.5C20.5 18.9 20.35 19.25 20.05 19.55C19.75 19.85 19.4 20 19 20H6ZM12.5 16.175L7.675 11.35L8.75 10.275L11.75 13.275V4H13.25V13.275L16.25 10.275L17.325 11.35L12.5 16.175Z" />
    </symbol>

</svg>