<svg width="341" height="472" viewBox="0 0 341 472" fill="none" xmlns="http://www.w3.org/2000/svg">
<path fill-rule="evenodd" clip-rule="evenodd" d="M68.3819 344.611L34.4575 322.714V366.509V410.305V454.1V497.784V541.58L68.3819 519.682V475.998V432.203V388.407V344.611Z" fill="#353F56"/>
<path fill-rule="evenodd" clip-rule="evenodd" d="M102.301 454.1V410.305L136.22 432.203V475.998V519.682L102.301 541.58V497.896V497.784V454.1Z" fill="#C5DDF2"/>
<path fill-rule="evenodd" clip-rule="evenodd" d="M34.4575 322.714L68.3819 300.927L102.301 322.714L136.22 344.611V388.407L102.301 366.509L68.3819 344.611L34.4575 322.714ZM68.3819 344.611L102.301 322.714L68.3819 344.611Z" fill="#435391"/>
<path fill-rule="evenodd" clip-rule="evenodd" d="M136.22 475.998V519.682L170.139 541.58V497.896V497.784V454.1V454.1L136.22 432.203V475.998Z" fill="#353F56"/>
<path fill-rule="evenodd" clip-rule="evenodd" d="M170.139 366.509V410.305V454.1L204.058 432.203V388.407V344.611L170.139 366.509Z" fill="#606060"/>
<path fill-rule="evenodd" clip-rule="evenodd" d="M204.058 300.927L170.139 322.714V279.029L204.058 257.132L237.982 279.029L204.058 300.927ZM170.139 279.029L136.22 300.927V344.611L170.139 322.714V279.029ZM136.22 344.611L102.301 322.714L136.22 300.927V344.611Z" fill="#C5DDF2"/>
<path fill-rule="evenodd" clip-rule="evenodd" d="M204.058 169.541V213.336V257.131L237.982 279.029V235.234V191.438L204.058 169.541Z" fill="#ABABAB"/>
<path fill-rule="evenodd" clip-rule="evenodd" d="M170.139 497.784V454.1L204.058 475.998L237.982 497.896V541.58L204.058 519.682L170.139 497.896V497.784Z" fill="#ABABAB"/>
<path fill-rule="evenodd" clip-rule="evenodd" d="M237.982 147.643L271.901 169.541V213.336L237.982 191.438L204.058 169.541L237.982 147.643Z" fill="#E1E1E1"/>
<path fill-rule="evenodd" clip-rule="evenodd" d="M237.982 235.234V279.029L271.901 257.131V257.132V257.131V213.336L237.982 235.234Z" fill="#C5DDF2"/>
<path fill-rule="evenodd" clip-rule="evenodd" d="M271.901 475.998V519.682L305.82 541.58V497.896V497.784V454.1L271.901 475.998Z" fill="#353F56"/>
<path fill-rule="evenodd" clip-rule="evenodd" d="M271.901 169.541V125.856L305.82 147.643L271.901 169.541ZM271.901 257.132V213.336V169.541L305.82 147.643V191.438V235.234V279.029L271.901 300.927V257.132ZM271.901 257.132L237.982 279.029L204.058 300.927L170.139 322.714V366.509L204.058 344.611L237.982 322.714L271.901 300.927V257.132ZM170.139 366.509L136.22 344.611L170.139 322.714V366.509Z" fill="#353F56"/>
<path fill-rule="evenodd" clip-rule="evenodd" d="M305.82 410.305L271.901 432.203V475.998L305.82 454.1V497.784V497.896V541.58L339.739 519.682V475.998V432.203L305.82 410.305ZM271.901 432.203L237.982 454.1L204.058 475.998L237.982 497.896L271.901 475.998V432.203Z" fill="#435391"/>
<path fill-rule="evenodd" clip-rule="evenodd" d="M305.82 322.714L271.901 344.611V388.407L305.82 366.509V366.509L339.739 344.611L305.82 322.714V322.714V322.714ZM237.982 410.305L271.901 388.407V344.611L237.982 366.509L204.058 388.407V432.203L237.982 410.305Z" fill="#353F56"/>
<path fill-rule="evenodd" clip-rule="evenodd" d="M339.739 125.856L305.82 147.643V191.438V235.234V279.029L339.739 257.132V213.336V169.541V125.856Z" fill="#ABABAB"/>
<path fill-rule="evenodd" clip-rule="evenodd" d="M339.739 82.0611L305.82 103.958V103.959L271.901 125.745V125.856L305.82 147.642V147.643V147.642L339.739 125.856V125.745L373.658 103.958L339.739 82.0611Z" fill="#E1E1E1"/>
<path fill-rule="evenodd" clip-rule="evenodd" d="M339.739 432.203L373.658 410.305V454.1V497.784V497.896V541.58L339.739 519.682V475.998V432.203Z" fill="#C5DDF2"/>
<path fill-rule="evenodd" clip-rule="evenodd" d="M373.658 366.509L339.739 344.611V388.407L305.82 410.305L339.739 432.203L373.658 410.305V366.509ZM373.658 410.305V366.509L407.577 388.407L373.658 410.305Z" fill="#ABABAB"/>
<path fill-rule="evenodd" clip-rule="evenodd" d="M339.739 257.131V213.336L373.658 235.234V279.029L339.984 257.288L373.658 279.029L339.739 300.927L305.82 322.713V322.714L271.901 344.611V300.927L305.82 279.03V279.029L339.739 257.132V257.131ZM271.901 300.927L237.982 322.714L204.058 344.611V388.407L237.982 366.509L271.901 344.611V300.927ZM373.658 279.029L407.577 300.927V257.132L373.658 279.029ZM373.658 279.029V235.234L407.577 257.131L373.658 279.029Z" fill="#E1E1E1"/>
</svg>
