<svg width="175" height="248" viewBox="0 0 175 248" fill="none" xmlns="http://www.w3.org/2000/svg">
<path fill-rule="evenodd" clip-rule="evenodd" d="M-9.15039 112.93V146.719V180.508L17.0187 163.613V129.824V96.0351L-9.15039 112.93Z" fill="#606060"/>
<path fill-rule="evenodd" clip-rule="evenodd" d="M17.018 62.3317L-9.15107 79.1405V45.4372L17.018 28.543L43.1913 45.4372L17.018 62.3317ZM-9.15107 45.4372L-35.3202 62.3317V96.0351L-9.15107 79.1405V45.4372ZM-35.3202 96.0351L-61.4893 79.1405L-35.3202 62.3317V96.0351Z" fill="#C5DDF2"/>
<path fill-rule="evenodd" clip-rule="evenodd" d="M17.0186 -39.0352V-5.24604V28.5426L43.1918 45.4372V11.6485V-22.1406L17.0186 -39.0352Z" fill="#ABABAB"/>
<path fill-rule="evenodd" clip-rule="evenodd" d="M-9.15039 214.211V180.508L17.0187 197.402L43.192 214.297V248L17.0187 231.105L-9.15039 214.297V214.211Z" fill="#ABABAB"/>
<path fill-rule="evenodd" clip-rule="evenodd" d="M43.1924 11.6485V45.4372L69.3615 28.5426V28.5431V28.5426V-5.24606L43.1924 11.6485Z" fill="#C5DDF2"/>
<path fill-rule="evenodd" clip-rule="evenodd" d="M69.3613 197.402V231.105L95.5304 248V214.297V214.211V180.508L69.3613 197.402Z" fill="#353F56"/>
<path fill-rule="evenodd" clip-rule="evenodd" d="M69.3612 -39.0352V-72.7386L95.5303 -55.9297L69.3612 -39.0352ZM69.3612 28.543V-5.24606V-39.0352L95.5303 -55.9297V-22.1406V11.6485V45.4372L69.3612 62.3317V28.543ZM69.3612 28.543L43.1921 45.4372L17.0188 62.3317L-9.15022 79.1406V112.93L17.0188 96.0351L43.1921 79.1406L69.3612 62.3317V28.543ZM-9.15022 112.93L-35.3193 96.0351L-9.15022 79.1406V112.93Z" fill="#353F56"/>
<path fill-rule="evenodd" clip-rule="evenodd" d="M95.53 146.719L69.3609 163.613V197.402L95.53 180.508V214.211V214.297V248L121.699 231.105V197.402V163.613L95.53 146.719ZM69.3609 163.613L43.1918 180.507L17.0186 197.402L43.1918 214.297L69.3609 197.402V163.613Z" fill="#435391"/>
<path fill-rule="evenodd" clip-rule="evenodd" d="M95.53 79.141L69.3609 96.0351V129.824L95.53 112.93V112.929L121.699 96.0351L95.53 79.141V79.1406V79.141ZM43.1918 146.719L69.3609 129.824V96.0351L43.1918 112.93L17.0186 129.824V163.613L43.1918 146.719Z" fill="#353F56"/>
<path fill-rule="evenodd" clip-rule="evenodd" d="M121.699 -72.7386L95.5303 -55.9297V-22.1406V11.6485V45.4372L121.699 28.543V-5.24607V-39.0352V-72.7386Z" fill="#ABABAB"/>
<path fill-rule="evenodd" clip-rule="evenodd" d="M121.7 163.613L147.869 146.719V180.508V214.211V214.297V248L121.7 231.105V197.402V163.613Z" fill="#C5DDF2"/>
<path fill-rule="evenodd" clip-rule="evenodd" d="M147.868 112.93L121.699 96.0351V129.824L95.5303 146.719L121.699 163.613L147.868 146.719V112.93ZM147.868 146.719V112.93L174.038 129.824L147.868 146.719Z" fill="#ABABAB"/>
<path fill-rule="evenodd" clip-rule="evenodd" d="M147.868 79.1406V45.4372L174.037 62.3317V96.0351L147.868 79.1406ZM147.868 112.93L174.037 129.824V96.0351L147.868 79.1406V112.93Z" fill="#353F56"/>
<path fill-rule="evenodd" clip-rule="evenodd" d="M121.699 28.5426V-5.24606L147.868 11.6485V45.4372L121.888 28.6636L147.868 45.4372L121.699 62.3317L95.53 79.1401V79.1406L69.3609 96.0351V62.3317L95.53 45.4376V45.4372L121.699 28.543V28.5426ZM69.3609 62.3317L43.1918 79.1406L17.0186 96.0351V129.824L43.1918 112.93L69.3609 96.0351V62.3317ZM147.868 45.4372L174.037 62.3317V28.543L147.868 45.4372ZM147.868 45.4372V11.6485L174.037 28.5426L147.868 45.4372Z" fill="#E1E1E1"/>
<path fill-rule="evenodd" clip-rule="evenodd" d="M147.868 -191V-157.211L174.037 -140.317V-174.105L147.868 -191ZM174.037 -140.316L147.868 -157.211V-123.422V-89.6331V-55.9297V-55.844V-22.1406V11.6485L174.037 28.5431V-5.24607V-39.0352V-72.7386V-106.527V-140.316Z" fill="#435391"/>
<path fill-rule="evenodd" clip-rule="evenodd" d="M147.868 146.719V180.508V214.211V214.297V248L174.037 231.105V197.402V163.613V129.824L147.868 146.719Z" fill="#353F56"/>
<path d="M-9.15039 212.653V246.356L17.0187 229.462L-9.15039 212.653Z" fill="#E1E1E1"/>
</svg>
