<svg width="1920" height="940" viewBox="0 0 1920 940" fill="none" xmlns="http://www.w3.org/2000/svg">
<g clip-path="url(#clip0_2815_20202)">
<rect width="1920" height="940" fill="#F7F2F0"/>
<path d="M1173.2 954.104L1235.52 994.307V913.901L1173.2 954.104Z" fill="#E1E1E1"/>
<path fill-rule="evenodd" clip-rule="evenodd" d="M1297.85 632.685L1235.52 592.482V672.888V753.294V833.7V913.901V994.307L1297.85 954.104V873.902V793.497V713.091V632.685Z" fill="#353F56"/>
<path fill-rule="evenodd" clip-rule="evenodd" d="M1360.17 833.7V753.294L1422.49 793.497V873.902V954.104L1360.17 994.307V914.105V913.901V833.7Z" fill="#C5DDF2"/>
<path fill-rule="evenodd" clip-rule="evenodd" d="M1235.52 592.482L1297.85 552.483H1297.85V552.483L1360.17 592.482L1360.17 592.482L1360.17 592.482L1360.17 592.482V592.482L1422.49 632.685V713.091L1360.17 672.888L1360.17 672.888L1297.85 632.685L1297.85 632.685H1297.85L1235.52 592.482ZM1297.85 632.685L1360.17 592.482V592.482L1297.85 632.685V632.685Z" fill="#435391"/>
<path fill-rule="evenodd" clip-rule="evenodd" d="M1422.49 873.902V954.104L1484.81 994.307V914.105V913.901V833.7V833.699L1422.49 793.497V873.902Z" fill="#353F56"/>
<path fill-rule="evenodd" clip-rule="evenodd" d="M1484.81 672.888V753.294V833.7L1547.13 793.497V713.091V632.685L1484.81 672.888Z" fill="#606060"/>
<path fill-rule="evenodd" clip-rule="evenodd" d="M1547.13 552.483V552.483L1547.13 552.483L1547.13 552.483L1484.81 592.482V512.28V512.28L1484.81 512.28L1547.13 472.078H1547.13V472.078L1609.46 512.28L1547.13 552.483ZM1484.81 512.28L1422.49 552.483V632.685L1484.81 592.482V512.28ZM1422.49 632.685L1360.17 592.482L1422.49 552.483V632.685Z" fill="#C5DDF2"/>
<path fill-rule="evenodd" clip-rule="evenodd" d="M1547.13 311.266V391.672V472.077L1609.46 512.28V431.875V351.469L1547.13 311.266Z" fill="#ABABAB"/>
<path fill-rule="evenodd" clip-rule="evenodd" d="M1484.81 913.901V833.7L1547.13 873.902L1547.13 873.902L1609.46 914.105V994.307L1547.13 954.104H1547.13L1484.81 914.105V913.901Z" fill="#ABABAB"/>
<path fill-rule="evenodd" clip-rule="evenodd" d="M1609.46 271.063L1609.46 271.063V271.063L1671.78 311.266V391.672L1609.46 351.469V351.469L1547.13 311.266L1609.46 271.063V271.063L1609.46 271.063Z" fill="#E1E1E1"/>
<path fill-rule="evenodd" clip-rule="evenodd" d="M1609.46 431.875V512.28L1671.78 472.077L1671.78 472.078V472.077V391.672L1609.46 431.875L1609.46 431.875V431.875Z" fill="#C5DDF2"/>
<path fill-rule="evenodd" clip-rule="evenodd" d="M1671.78 873.902V954.104L1734.1 994.307V914.105V913.901V833.7L1671.78 873.902Z" fill="#353F56"/>
<path fill-rule="evenodd" clip-rule="evenodd" d="M1671.78 311.266V231.064L1734.1 271.063L1671.78 311.266ZM1671.78 472.078V391.672V311.266V311.266L1734.1 271.063V351.469V431.875V512.28L1671.78 552.483V472.078ZM1671.78 472.078L1609.46 512.28L1547.13 552.483L1484.81 592.482V672.888L1547.13 632.685L1609.46 592.482H1609.46L1671.78 552.483V472.078ZM1484.81 672.888L1422.49 632.685L1484.81 592.482V672.888Z" fill="#353F56"/>
<path fill-rule="evenodd" clip-rule="evenodd" d="M1734.1 753.294L1671.78 793.497V873.902L1734.1 833.7V913.901V914.105V994.307L1796.42 954.104V873.902V793.497L1734.1 753.294V753.294L1734.1 753.294L1734.1 753.294V753.294ZM1671.78 793.497L1609.46 833.699L1547.13 873.902L1609.46 914.105H1609.46L1671.78 873.902V793.497Z" fill="#435391"/>
<path fill-rule="evenodd" clip-rule="evenodd" d="M1734.1 592.483L1671.78 632.685V713.091L1734.1 672.888V672.887L1796.42 632.685L1734.1 592.483V592.482L1734.1 592.482L1734.1 592.482V592.483ZM1609.46 753.294L1671.78 713.091V632.685L1609.46 672.888L1609.46 672.888L1547.13 713.091V793.497L1609.46 753.294H1609.46Z" fill="#353F56"/>
<path fill-rule="evenodd" clip-rule="evenodd" d="M1796.42 231.064L1734.1 271.063V351.469V431.875V512.28L1796.42 472.078V391.672V311.266V231.064Z" fill="#ABABAB"/>
<path fill-rule="evenodd" clip-rule="evenodd" d="M1796.42 150.659L1796.42 150.659L1796.42 150.659L1734.1 190.861L1734.1 190.861V190.861V190.862L1671.78 230.86V231.064L1734.1 271.062V271.063L1734.1 271.063L1734.1 271.063V271.062L1796.42 231.064V231.064V230.86V230.86L1858.74 190.861L1796.42 150.659Z" fill="#E1E1E1"/>
<path fill-rule="evenodd" clip-rule="evenodd" d="M1796.42 793.497L1858.74 753.294V833.7V913.901V914.105V994.307L1796.42 954.104V873.902V793.497Z" fill="#C5DDF2"/>
<path fill-rule="evenodd" clip-rule="evenodd" d="M1858.74 672.888L1796.42 632.685V713.091L1734.1 753.294L1796.42 793.497H1796.42L1858.74 753.294V672.888ZM1858.74 753.294V672.888L1921.06 713.091L1858.74 753.294Z" fill="#ABABAB"/>
<path fill-rule="evenodd" clip-rule="evenodd" d="M1858.74 592.482V512.28L1921.06 552.483V552.483V632.685L1858.74 592.482ZM1858.74 672.888L1921.06 713.091V632.685L1858.74 592.482V672.888Z" fill="#353F56"/>
<path fill-rule="evenodd" clip-rule="evenodd" d="M1796.42 472.077V391.672L1858.74 431.875L1858.74 431.875V431.875V512.28L1796.87 472.365L1858.74 512.28L1796.42 552.483H1796.42L1734.1 592.481V592.482L1671.78 632.685V552.483L1734.1 512.281V512.28L1796.42 472.078V472.077ZM1671.78 552.483L1609.46 592.482L1547.13 632.685V713.091L1609.46 672.888H1609.46L1671.78 632.685V552.483ZM1858.74 512.28L1921.06 552.483V472.078L1858.74 512.28ZM1858.74 512.28V431.875L1921.06 472.077L1858.74 512.28Z" fill="#E1E1E1"/>
<path fill-rule="evenodd" clip-rule="evenodd" d="M1858.74 -50.356V30.0497L1921.06 70.2525V-10.1531L1858.74 -50.356ZM1921.06 70.2529L1858.74 30.05V110.456V190.861V271.063V271.267V351.469V431.875L1921.06 472.078V391.672V311.266V231.064V150.659V70.2529Z" fill="#435391"/>
<path fill-rule="evenodd" clip-rule="evenodd" d="M1858.74 753.294V753.294V833.7V913.901V914.105V994.307L1921.06 954.104V873.902V793.497V713.091L1858.74 753.294Z" fill="#353F56"/>
<path d="M1484.81 910.195V990.396L1547.13 950.193L1484.81 910.195Z" fill="#E1E1E1"/>
</g>
<defs>
<clipPath id="clip0_2815_20202">
<rect width="1920" height="940" fill="white"/>
</clipPath>
</defs>
</svg>
